<svg id="visual" viewBox="0 0 1920 1080" width="1920" height="1080" xmlns="http://www.w3.org/2000/svg" xmlns:xlink="http://www.w3.org/1999/xlink" version="1.1"><rect x="0" y="0" width="1920" height="1080" fill="#191414"></rect><defs><linearGradient id="grad1_0" x1="43.8%" y1="0%" x2="100%" y2="100%"><stop offset="14.444444444444446%" stop-color="#191414" stop-opacity="1"></stop><stop offset="85.55555555555554%" stop-color="#191414" stop-opacity="1"></stop></linearGradient></defs><defs><linearGradient id="grad2_0" x1="0%" y1="0%" x2="56.3%" y2="100%"><stop offset="14.444444444444446%" stop-color="#191414" stop-opacity="1"></stop><stop offset="85.55555555555554%" stop-color="#191414" stop-opacity="1"></stop></linearGradient></defs><g transform="translate(1920, 0)"><path d="M0 594C-51.9 538.7 -103.8 483.4 -144.3 444.1C-184.8 404.9 -213.9 381.7 -271 373C-328.1 364.2 -413.2 369.8 -468.4 340.3C-523.6 310.8 -549 246.1 -564.9 183.6C-580.9 121 -587.4 60.5 -594 0L0 0Z" fill="#1db954"></path></g><g transform="translate(0, 1080)"><path d="M0 -594C70.7 -598.7 141.4 -603.4 182 -560.2C222.7 -517 233.3 -425.9 283.3 -389.9C333.4 -354 422.8 -373.1 477.3 -346.8C531.8 -320.5 551.3 -248.9 564.9 -183.6C578.5 -118.2 586.3 -59.1 594 0L0 0Z" fill="#1db954"></path></g></svg>